<?xml version="1.0" encoding="utf-8"?>
<svg xmlns="http://www.w3.org/2000/svg" xmlns:xlink="http://www.w3.org/1999/xlink" width="600" height="400" viewBox="0 0 2400 1600">
<defs>
  <clipPath id="clip6000">
    <rect x="0" y="0" width="2400" height="1600"/>
  </clipPath>
</defs>
<path clip-path="url(#clip6000)" d="
M0 1600 L2400 1600 L2400 0 L0 0  Z
  " fill="#ffffff" fill-rule="evenodd" fill-opacity="1"/>
<defs>
  <clipPath id="clip6001">
    <rect x="480" y="0" width="1681" height="1600"/>
  </clipPath>
</defs>
<path clip-path="url(#clip6000)" d="
M255.898 1425.62 L2352.76 1425.62 L2352.76 47.2441 L255.898 47.2441  Z
  " fill="#ffffff" fill-rule="evenodd" fill-opacity="1"/>
<defs>
  <clipPath id="clip6002">
    <rect x="255" y="47" width="2098" height="1379"/>
  </clipPath>
</defs>
<polyline clip-path="url(#clip6002)" style="stroke:#000000; stroke-width:2; stroke-opacity:0.1; fill:none" points="
  371.229,1425.62 371.229,47.2441 
  "/>
<polyline clip-path="url(#clip6002)" style="stroke:#000000; stroke-width:2; stroke-opacity:0.1; fill:none" points="
  833.158,1425.62 833.158,47.2441 
  "/>
<polyline clip-path="url(#clip6002)" style="stroke:#000000; stroke-width:2; stroke-opacity:0.1; fill:none" points="
  1295.09,1425.62 1295.09,47.2441 
  "/>
<polyline clip-path="url(#clip6002)" style="stroke:#000000; stroke-width:2; stroke-opacity:0.1; fill:none" points="
  1757.02,1425.62 1757.02,47.2441 
  "/>
<polyline clip-path="url(#clip6002)" style="stroke:#000000; stroke-width:2; stroke-opacity:0.1; fill:none" points="
  2218.95,1425.62 2218.95,47.2441 
  "/>
<polyline clip-path="url(#clip6002)" style="stroke:#000000; stroke-width:2; stroke-opacity:0.1; fill:none" points="
  255.898,1386.61 2352.76,1386.61 
  "/>
<polyline clip-path="url(#clip6002)" style="stroke:#000000; stroke-width:2; stroke-opacity:0.1; fill:none" points="
  255.898,1009.04 2352.76,1009.04 
  "/>
<polyline clip-path="url(#clip6002)" style="stroke:#000000; stroke-width:2; stroke-opacity:0.1; fill:none" points="
  255.898,631.467 2352.76,631.467 
  "/>
<polyline clip-path="url(#clip6002)" style="stroke:#000000; stroke-width:2; stroke-opacity:0.1; fill:none" points="
  255.898,253.896 2352.76,253.896 
  "/>
<polyline clip-path="url(#clip6000)" style="stroke:#000000; stroke-width:4; stroke-opacity:1; fill:none" points="
  255.898,1425.62 2352.76,1425.62 
  "/>
<polyline clip-path="url(#clip6000)" style="stroke:#000000; stroke-width:4; stroke-opacity:1; fill:none" points="
  255.898,1425.62 255.898,47.2441 
  "/>
<polyline clip-path="url(#clip6000)" style="stroke:#000000; stroke-width:4; stroke-opacity:1; fill:none" points="
  371.229,1425.62 371.229,1409.08 
  "/>
<polyline clip-path="url(#clip6000)" style="stroke:#000000; stroke-width:4; stroke-opacity:1; fill:none" points="
  833.158,1425.62 833.158,1409.08 
  "/>
<polyline clip-path="url(#clip6000)" style="stroke:#000000; stroke-width:4; stroke-opacity:1; fill:none" points="
  1295.09,1425.62 1295.09,1409.08 
  "/>
<polyline clip-path="url(#clip6000)" style="stroke:#000000; stroke-width:4; stroke-opacity:1; fill:none" points="
  1757.02,1425.62 1757.02,1409.08 
  "/>
<polyline clip-path="url(#clip6000)" style="stroke:#000000; stroke-width:4; stroke-opacity:1; fill:none" points="
  2218.95,1425.62 2218.95,1409.08 
  "/>
<polyline clip-path="url(#clip6000)" style="stroke:#000000; stroke-width:4; stroke-opacity:1; fill:none" points="
  255.898,1386.61 281.06,1386.61 
  "/>
<polyline clip-path="url(#clip6000)" style="stroke:#000000; stroke-width:4; stroke-opacity:1; fill:none" points="
  255.898,1009.04 281.06,1009.04 
  "/>
<polyline clip-path="url(#clip6000)" style="stroke:#000000; stroke-width:4; stroke-opacity:1; fill:none" points="
  255.898,631.467 281.06,631.467 
  "/>
<polyline clip-path="url(#clip6000)" style="stroke:#000000; stroke-width:4; stroke-opacity:1; fill:none" points="
  255.898,253.896 281.06,253.896 
  "/>
<g clip-path="url(#clip6000)">
<text style="fill:#000000; fill-opacity:1; font-family:Arial,Helvetica Neue,Helvetica,sans-serif; font-size:48px; text-anchor:middle;" transform="rotate(0, 371.229, 1479.62)" x="371.229" y="1479.62">0</text>
</g>
<g clip-path="url(#clip6000)">
<text style="fill:#000000; fill-opacity:1; font-family:Arial,Helvetica Neue,Helvetica,sans-serif; font-size:48px; text-anchor:middle;" transform="rotate(0, 833.158, 1479.62)" x="833.158" y="1479.62">2500</text>
</g>
<g clip-path="url(#clip6000)">
<text style="fill:#000000; fill-opacity:1; font-family:Arial,Helvetica Neue,Helvetica,sans-serif; font-size:48px; text-anchor:middle;" transform="rotate(0, 1295.09, 1479.62)" x="1295.09" y="1479.62">5000</text>
</g>
<g clip-path="url(#clip6000)">
<text style="fill:#000000; fill-opacity:1; font-family:Arial,Helvetica Neue,Helvetica,sans-serif; font-size:48px; text-anchor:middle;" transform="rotate(0, 1757.02, 1479.62)" x="1757.02" y="1479.62">7500</text>
</g>
<g clip-path="url(#clip6000)">
<text style="fill:#000000; fill-opacity:1; font-family:Arial,Helvetica Neue,Helvetica,sans-serif; font-size:48px; text-anchor:middle;" transform="rotate(0, 2218.95, 1479.62)" x="2218.95" y="1479.62">10000</text>
</g>
<g clip-path="url(#clip6000)">
<text style="fill:#000000; fill-opacity:1; font-family:Arial,Helvetica Neue,Helvetica,sans-serif; font-size:48px; text-anchor:end;" transform="rotate(0, 231.898, 1404.11)" x="231.898" y="1404.11">0</text>
</g>
<g clip-path="url(#clip6000)">
<text style="fill:#000000; fill-opacity:1; font-family:Arial,Helvetica Neue,Helvetica,sans-serif; font-size:48px; text-anchor:end;" transform="rotate(0, 231.898, 1026.54)" x="231.898" y="1026.54">500</text>
</g>
<g clip-path="url(#clip6000)">
<text style="fill:#000000; fill-opacity:1; font-family:Arial,Helvetica Neue,Helvetica,sans-serif; font-size:48px; text-anchor:end;" transform="rotate(0, 231.898, 648.967)" x="231.898" y="648.967">1000</text>
</g>
<g clip-path="url(#clip6000)">
<text style="fill:#000000; fill-opacity:1; font-family:Arial,Helvetica Neue,Helvetica,sans-serif; font-size:48px; text-anchor:end;" transform="rotate(0, 231.898, 271.396)" x="231.898" y="271.396">1500</text>
</g>
<g clip-path="url(#clip6000)">
<text style="fill:#000000; fill-opacity:1; font-family:Arial,Helvetica Neue,Helvetica,sans-serif; font-size:66px; text-anchor:middle;" transform="rotate(0, 1304.33, 1559.48)" x="1304.33" y="1559.48">macrosteps to reach M &gt; 0.85</text>
</g>
<g clip-path="url(#clip6000)">
<text style="fill:#000000; fill-opacity:1; font-family:Arial,Helvetica Neue,Helvetica,sans-serif; font-size:66px; text-anchor:middle;" transform="rotate(-90, 89.2861, 736.431)" x="89.2861" y="736.431">frequency</text>
</g>
<path clip-path="url(#clip6002)" d="
M371.229 1310.34 L371.229 1386.61 L389.706 1386.61 L389.706 1310.34 L371.229 1310.34 L371.229 1310.34  Z
  " fill="#4100eb" fill-rule="evenodd" fill-opacity="1"/>
<polyline clip-path="url(#clip6002)" style="stroke:#000000; stroke-width:4; stroke-opacity:0; fill:none" points="
  371.229,1310.34 371.229,1386.61 389.706,1386.61 389.706,1310.34 371.229,1310.34 
  "/>
<path clip-path="url(#clip6002)" d="
M389.706 673.755 L389.706 1386.61 L408.183 1386.61 L408.183 673.755 L389.706 673.755 L389.706 673.755  Z
  " fill="#4100eb" fill-rule="evenodd" fill-opacity="1"/>
<polyline clip-path="url(#clip6002)" style="stroke:#000000; stroke-width:4; stroke-opacity:0; fill:none" points="
  389.706,673.755 389.706,1386.61 408.183,1386.61 408.183,673.755 389.706,673.755 
  "/>
<path clip-path="url(#clip6002)" d="
M408.183 290.898 L408.183 1386.61 L426.66 1386.61 L426.66 290.898 L408.183 290.898 L408.183 290.898  Z
  " fill="#4100eb" fill-rule="evenodd" fill-opacity="1"/>
<polyline clip-path="url(#clip6002)" style="stroke:#000000; stroke-width:4; stroke-opacity:0; fill:none" points="
  408.183,290.898 408.183,1386.61 426.66,1386.61 426.66,290.898 408.183,290.898 
  "/>
<path clip-path="url(#clip6002)" d="
M426.66 86.2547 L426.66 1386.61 L445.137 1386.61 L445.137 86.2547 L426.66 86.2547 L426.66 86.2547  Z
  " fill="#4100eb" fill-rule="evenodd" fill-opacity="1"/>
<polyline clip-path="url(#clip6002)" style="stroke:#000000; stroke-width:4; stroke-opacity:0; fill:none" points="
  426.66,86.2547 426.66,1386.61 445.137,1386.61 445.137,86.2547 426.66,86.2547 
  "/>
<path clip-path="url(#clip6002)" d="
M445.137 309.021 L445.137 1386.61 L463.614 1386.61 L463.614 309.021 L445.137 309.021 L445.137 309.021  Z
  " fill="#4100eb" fill-rule="evenodd" fill-opacity="1"/>
<polyline clip-path="url(#clip6002)" style="stroke:#000000; stroke-width:4; stroke-opacity:0; fill:none" points="
  445.137,309.021 445.137,1386.61 463.614,1386.61 463.614,309.021 445.137,309.021 
  "/>
<path clip-path="url(#clip6002)" d="
M463.614 710.001 L463.614 1386.61 L482.092 1386.61 L482.092 710.001 L463.614 710.001 L463.614 710.001  Z
  " fill="#4100eb" fill-rule="evenodd" fill-opacity="1"/>
<polyline clip-path="url(#clip6002)" style="stroke:#000000; stroke-width:4; stroke-opacity:0; fill:none" points="
  463.614,710.001 463.614,1386.61 482.092,1386.61 482.092,710.001 463.614,710.001 
  "/>
<path clip-path="url(#clip6002)" d="
M482.092 1023.39 L482.092 1386.61 L500.569 1386.61 L500.569 1023.39 L482.092 1023.39 L482.092 1023.39  Z
  " fill="#4100eb" fill-rule="evenodd" fill-opacity="1"/>
<polyline clip-path="url(#clip6002)" style="stroke:#000000; stroke-width:4; stroke-opacity:0; fill:none" points="
  482.092,1023.39 482.092,1386.61 500.569,1386.61 500.569,1023.39 482.092,1023.39 
  "/>
<path clip-path="url(#clip6002)" d="
M500.569 1221.23 L500.569 1386.61 L519.046 1386.61 L519.046 1221.23 L500.569 1221.23 L500.569 1221.23  Z
  " fill="#4100eb" fill-rule="evenodd" fill-opacity="1"/>
<polyline clip-path="url(#clip6002)" style="stroke:#000000; stroke-width:4; stroke-opacity:0; fill:none" points="
  500.569,1221.23 500.569,1386.61 519.046,1386.61 519.046,1221.23 500.569,1221.23 
  "/>
<path clip-path="url(#clip6002)" d="
M519.046 1287.68 L519.046 1386.61 L537.523 1386.61 L537.523 1287.68 L519.046 1287.68 L519.046 1287.68  Z
  " fill="#4100eb" fill-rule="evenodd" fill-opacity="1"/>
<polyline clip-path="url(#clip6002)" style="stroke:#000000; stroke-width:4; stroke-opacity:0; fill:none" points="
  519.046,1287.68 519.046,1386.61 537.523,1386.61 537.523,1287.68 519.046,1287.68 
  "/>
<path clip-path="url(#clip6002)" d="
M537.523 1300.52 L537.523 1386.61 L556 1386.61 L556 1300.52 L537.523 1300.52 L537.523 1300.52  Z
  " fill="#4100eb" fill-rule="evenodd" fill-opacity="1"/>
<polyline clip-path="url(#clip6002)" style="stroke:#000000; stroke-width:4; stroke-opacity:0; fill:none" points="
  537.523,1300.52 537.523,1386.61 556,1386.61 556,1300.52 537.523,1300.52 
  "/>
<path clip-path="url(#clip6002)" d="
M556 1309.58 L556 1386.61 L574.478 1386.61 L574.478 1309.58 L556 1309.58 L556 1309.58  Z
  " fill="#4100eb" fill-rule="evenodd" fill-opacity="1"/>
<polyline clip-path="url(#clip6002)" style="stroke:#000000; stroke-width:4; stroke-opacity:0; fill:none" points="
  556,1309.58 556,1386.61 574.478,1386.61 574.478,1309.58 556,1309.58 
  "/>
<path clip-path="url(#clip6002)" d="
M574.478 1308.07 L574.478 1386.61 L592.955 1386.61 L592.955 1308.07 L574.478 1308.07 L574.478 1308.07  Z
  " fill="#4100eb" fill-rule="evenodd" fill-opacity="1"/>
<polyline clip-path="url(#clip6002)" style="stroke:#000000; stroke-width:4; stroke-opacity:0; fill:none" points="
  574.478,1308.07 574.478,1386.61 592.955,1386.61 592.955,1308.07 574.478,1308.07 
  "/>
<path clip-path="url(#clip6002)" d="
M592.955 1320.91 L592.955 1386.61 L611.432 1386.61 L611.432 1320.91 L592.955 1320.91 L592.955 1320.91  Z
  " fill="#4100eb" fill-rule="evenodd" fill-opacity="1"/>
<polyline clip-path="url(#clip6002)" style="stroke:#000000; stroke-width:4; stroke-opacity:0; fill:none" points="
  592.955,1320.91 592.955,1386.61 611.432,1386.61 611.432,1320.91 592.955,1320.91 
  "/>
<path clip-path="url(#clip6002)" d="
M611.432 1311.09 L611.432 1386.61 L629.909 1386.61 L629.909 1311.09 L611.432 1311.09 L611.432 1311.09  Z
  " fill="#4100eb" fill-rule="evenodd" fill-opacity="1"/>
<polyline clip-path="url(#clip6002)" style="stroke:#000000; stroke-width:4; stroke-opacity:0; fill:none" points="
  611.432,1311.09 611.432,1386.61 629.909,1386.61 629.909,1311.09 611.432,1311.09 
  "/>
<path clip-path="url(#clip6002)" d="
M629.909 1313.36 L629.909 1386.61 L648.386 1386.61 L648.386 1313.36 L629.909 1313.36 L629.909 1313.36  Z
  " fill="#4100eb" fill-rule="evenodd" fill-opacity="1"/>
<polyline clip-path="url(#clip6002)" style="stroke:#000000; stroke-width:4; stroke-opacity:0; fill:none" points="
  629.909,1313.36 629.909,1386.61 648.386,1386.61 648.386,1313.36 629.909,1313.36 
  "/>
<path clip-path="url(#clip6002)" d="
M648.386 1320.16 L648.386 1386.61 L666.864 1386.61 L666.864 1320.16 L648.386 1320.16 L648.386 1320.16  Z
  " fill="#4100eb" fill-rule="evenodd" fill-opacity="1"/>
<polyline clip-path="url(#clip6002)" style="stroke:#000000; stroke-width:4; stroke-opacity:0; fill:none" points="
  648.386,1320.16 648.386,1386.61 666.864,1386.61 666.864,1320.16 648.386,1320.16 
  "/>
<path clip-path="url(#clip6002)" d="
M666.864 1324.69 L666.864 1386.61 L685.341 1386.61 L685.341 1324.69 L666.864 1324.69 L666.864 1324.69  Z
  " fill="#4100eb" fill-rule="evenodd" fill-opacity="1"/>
<polyline clip-path="url(#clip6002)" style="stroke:#000000; stroke-width:4; stroke-opacity:0; fill:none" points="
  666.864,1324.69 666.864,1386.61 685.341,1386.61 685.341,1324.69 666.864,1324.69 
  "/>
<path clip-path="url(#clip6002)" d="
M685.341 1321.67 L685.341 1386.61 L703.818 1386.61 L703.818 1321.67 L685.341 1321.67 L685.341 1321.67  Z
  " fill="#4100eb" fill-rule="evenodd" fill-opacity="1"/>
<polyline clip-path="url(#clip6002)" style="stroke:#000000; stroke-width:4; stroke-opacity:0; fill:none" points="
  685.341,1321.67 685.341,1386.61 703.818,1386.61 703.818,1321.67 685.341,1321.67 
  "/>
<path clip-path="url(#clip6002)" d="
M703.818 1323.93 L703.818 1386.61 L722.295 1386.61 L722.295 1323.93 L703.818 1323.93 L703.818 1323.93  Z
  " fill="#4100eb" fill-rule="evenodd" fill-opacity="1"/>
<polyline clip-path="url(#clip6002)" style="stroke:#000000; stroke-width:4; stroke-opacity:0; fill:none" points="
  703.818,1323.93 703.818,1386.61 722.295,1386.61 722.295,1323.93 703.818,1323.93 
  "/>
<path clip-path="url(#clip6002)" d="
M722.295 1329.97 L722.295 1386.61 L740.772 1386.61 L740.772 1329.97 L722.295 1329.97 L722.295 1329.97  Z
  " fill="#4100eb" fill-rule="evenodd" fill-opacity="1"/>
<polyline clip-path="url(#clip6002)" style="stroke:#000000; stroke-width:4; stroke-opacity:0; fill:none" points="
  722.295,1329.97 722.295,1386.61 740.772,1386.61 740.772,1329.97 722.295,1329.97 
  "/>
<path clip-path="url(#clip6002)" d="
M740.772 1329.97 L740.772 1386.61 L759.25 1386.61 L759.25 1329.97 L740.772 1329.97 L740.772 1329.97  Z
  " fill="#4100eb" fill-rule="evenodd" fill-opacity="1"/>
<polyline clip-path="url(#clip6002)" style="stroke:#000000; stroke-width:4; stroke-opacity:0; fill:none" points="
  740.772,1329.97 740.772,1386.61 759.25,1386.61 759.25,1329.97 740.772,1329.97 
  "/>
<path clip-path="url(#clip6002)" d="
M759.25 1342.05 L759.25 1386.61 L777.727 1386.61 L777.727 1342.05 L759.25 1342.05 L759.25 1342.05  Z
  " fill="#4100eb" fill-rule="evenodd" fill-opacity="1"/>
<polyline clip-path="url(#clip6002)" style="stroke:#000000; stroke-width:4; stroke-opacity:0; fill:none" points="
  759.25,1342.05 759.25,1386.61 777.727,1386.61 777.727,1342.05 759.25,1342.05 
  "/>
<path clip-path="url(#clip6002)" d="
M777.727 1341.3 L777.727 1386.61 L796.204 1386.61 L796.204 1341.3 L777.727 1341.3 L777.727 1341.3  Z
  " fill="#4100eb" fill-rule="evenodd" fill-opacity="1"/>
<polyline clip-path="url(#clip6002)" style="stroke:#000000; stroke-width:4; stroke-opacity:0; fill:none" points="
  777.727,1341.3 777.727,1386.61 796.204,1386.61 796.204,1341.3 777.727,1341.3 
  "/>
<path clip-path="url(#clip6002)" d="
M796.204 1334.5 L796.204 1386.61 L814.681 1386.61 L814.681 1334.5 L796.204 1334.5 L796.204 1334.5  Z
  " fill="#4100eb" fill-rule="evenodd" fill-opacity="1"/>
<polyline clip-path="url(#clip6002)" style="stroke:#000000; stroke-width:4; stroke-opacity:0; fill:none" points="
  796.204,1334.5 796.204,1386.61 814.681,1386.61 814.681,1334.5 796.204,1334.5 
  "/>
<path clip-path="url(#clip6002)" d="
M814.681 1336.77 L814.681 1386.61 L833.158 1386.61 L833.158 1336.77 L814.681 1336.77 L814.681 1336.77  Z
  " fill="#4100eb" fill-rule="evenodd" fill-opacity="1"/>
<polyline clip-path="url(#clip6002)" style="stroke:#000000; stroke-width:4; stroke-opacity:0; fill:none" points="
  814.681,1336.77 814.681,1386.61 833.158,1386.61 833.158,1336.77 814.681,1336.77 
  "/>
<path clip-path="url(#clip6002)" d="
M833.158 1344.32 L833.158 1386.61 L851.636 1386.61 L851.636 1344.32 L833.158 1344.32 L833.158 1344.32  Z
  " fill="#4100eb" fill-rule="evenodd" fill-opacity="1"/>
<polyline clip-path="url(#clip6002)" style="stroke:#000000; stroke-width:4; stroke-opacity:0; fill:none" points="
  833.158,1344.32 833.158,1386.61 851.636,1386.61 851.636,1344.32 833.158,1344.32 
  "/>
<path clip-path="url(#clip6002)" d="
M851.636 1359.42 L851.636 1386.61 L870.113 1386.61 L870.113 1359.42 L851.636 1359.42 L851.636 1359.42  Z
  " fill="#4100eb" fill-rule="evenodd" fill-opacity="1"/>
<polyline clip-path="url(#clip6002)" style="stroke:#000000; stroke-width:4; stroke-opacity:0; fill:none" points="
  851.636,1359.42 851.636,1386.61 870.113,1386.61 870.113,1359.42 851.636,1359.42 
  "/>
<path clip-path="url(#clip6002)" d="
M870.113 1354.89 L870.113 1386.61 L888.59 1386.61 L888.59 1354.89 L870.113 1354.89 L870.113 1354.89  Z
  " fill="#4100eb" fill-rule="evenodd" fill-opacity="1"/>
<polyline clip-path="url(#clip6002)" style="stroke:#000000; stroke-width:4; stroke-opacity:0; fill:none" points="
  870.113,1354.89 870.113,1386.61 888.59,1386.61 888.59,1354.89 870.113,1354.89 
  "/>
<path clip-path="url(#clip6002)" d="
M888.59 1348.1 L888.59 1386.61 L907.067 1386.61 L907.067 1348.1 L888.59 1348.1 L888.59 1348.1  Z
  " fill="#4100eb" fill-rule="evenodd" fill-opacity="1"/>
<polyline clip-path="url(#clip6002)" style="stroke:#000000; stroke-width:4; stroke-opacity:0; fill:none" points="
  888.59,1348.1 888.59,1386.61 907.067,1386.61 907.067,1348.1 888.59,1348.1 
  "/>
<path clip-path="url(#clip6002)" d="
M907.067 1349.61 L907.067 1386.61 L925.544 1386.61 L925.544 1349.61 L907.067 1349.61 L907.067 1349.61  Z
  " fill="#4100eb" fill-rule="evenodd" fill-opacity="1"/>
<polyline clip-path="url(#clip6002)" style="stroke:#000000; stroke-width:4; stroke-opacity:0; fill:none" points="
  907.067,1349.61 907.067,1386.61 925.544,1386.61 925.544,1349.61 907.067,1349.61 
  "/>
<path clip-path="url(#clip6002)" d="
M925.544 1361.69 L925.544 1386.61 L944.021 1386.61 L944.021 1361.69 L925.544 1361.69 L925.544 1361.69  Z
  " fill="#4100eb" fill-rule="evenodd" fill-opacity="1"/>
<polyline clip-path="url(#clip6002)" style="stroke:#000000; stroke-width:4; stroke-opacity:0; fill:none" points="
  925.544,1361.69 925.544,1386.61 944.021,1386.61 944.021,1361.69 925.544,1361.69 
  "/>
<path clip-path="url(#clip6002)" d="
M944.021 1357.91 L944.021 1386.61 L962.499 1386.61 L962.499 1357.91 L944.021 1357.91 L944.021 1357.91  Z
  " fill="#4100eb" fill-rule="evenodd" fill-opacity="1"/>
<polyline clip-path="url(#clip6002)" style="stroke:#000000; stroke-width:4; stroke-opacity:0; fill:none" points="
  944.021,1357.91 944.021,1386.61 962.499,1386.61 962.499,1357.91 944.021,1357.91 
  "/>
<path clip-path="url(#clip6002)" d="
M962.499 1354.89 L962.499 1386.61 L980.976 1386.61 L980.976 1354.89 L962.499 1354.89 L962.499 1354.89  Z
  " fill="#4100eb" fill-rule="evenodd" fill-opacity="1"/>
<polyline clip-path="url(#clip6002)" style="stroke:#000000; stroke-width:4; stroke-opacity:0; fill:none" points="
  962.499,1354.89 962.499,1386.61 980.976,1386.61 980.976,1354.89 962.499,1354.89 
  "/>
<path clip-path="url(#clip6002)" d="
M980.976 1359.42 L980.976 1386.61 L999.453 1386.61 L999.453 1359.42 L980.976 1359.42 L980.976 1359.42  Z
  " fill="#4100eb" fill-rule="evenodd" fill-opacity="1"/>
<polyline clip-path="url(#clip6002)" style="stroke:#000000; stroke-width:4; stroke-opacity:0; fill:none" points="
  980.976,1359.42 980.976,1386.61 999.453,1386.61 999.453,1359.42 980.976,1359.42 
  "/>
<path clip-path="url(#clip6002)" d="
M999.453 1357.16 L999.453 1386.61 L1017.93 1386.61 L1017.93 1357.16 L999.453 1357.16 L999.453 1357.16  Z
  " fill="#4100eb" fill-rule="evenodd" fill-opacity="1"/>
<polyline clip-path="url(#clip6002)" style="stroke:#000000; stroke-width:4; stroke-opacity:0; fill:none" points="
  999.453,1357.16 999.453,1386.61 1017.93,1386.61 1017.93,1357.16 999.453,1357.16 
  "/>
<path clip-path="url(#clip6002)" d="
M1017.93 1363.95 L1017.93 1386.61 L1036.41 1386.61 L1036.41 1363.95 L1017.93 1363.95 L1017.93 1363.95  Z
  " fill="#4100eb" fill-rule="evenodd" fill-opacity="1"/>
<polyline clip-path="url(#clip6002)" style="stroke:#000000; stroke-width:4; stroke-opacity:0; fill:none" points="
  1017.93,1363.95 1017.93,1386.61 1036.41,1386.61 1036.41,1363.95 1017.93,1363.95 
  "/>
<path clip-path="url(#clip6002)" d="
M1036.41 1357.91 L1036.41 1386.61 L1054.88 1386.61 L1054.88 1357.91 L1036.41 1357.91 L1036.41 1357.91  Z
  " fill="#4100eb" fill-rule="evenodd" fill-opacity="1"/>
<polyline clip-path="url(#clip6002)" style="stroke:#000000; stroke-width:4; stroke-opacity:0; fill:none" points="
  1036.41,1357.91 1036.41,1386.61 1054.88,1386.61 1054.88,1357.91 1036.41,1357.91 
  "/>
<path clip-path="url(#clip6002)" d="
M1054.88 1366.22 L1054.88 1386.61 L1073.36 1386.61 L1073.36 1366.22 L1054.88 1366.22 L1054.88 1366.22  Z
  " fill="#4100eb" fill-rule="evenodd" fill-opacity="1"/>
<polyline clip-path="url(#clip6002)" style="stroke:#000000; stroke-width:4; stroke-opacity:0; fill:none" points="
  1054.88,1366.22 1054.88,1386.61 1073.36,1386.61 1073.36,1366.22 1054.88,1366.22 
  "/>
<path clip-path="url(#clip6002)" d="
M1073.36 1368.48 L1073.36 1386.61 L1091.84 1386.61 L1091.84 1368.48 L1073.36 1368.48 L1073.36 1368.48  Z
  " fill="#4100eb" fill-rule="evenodd" fill-opacity="1"/>
<polyline clip-path="url(#clip6002)" style="stroke:#000000; stroke-width:4; stroke-opacity:0; fill:none" points="
  1073.36,1368.48 1073.36,1386.61 1091.84,1386.61 1091.84,1368.48 1073.36,1368.48 
  "/>
<path clip-path="url(#clip6002)" d="
M1091.84 1366.22 L1091.84 1386.61 L1110.32 1386.61 L1110.32 1366.22 L1091.84 1366.22 L1091.84 1366.22  Z
  " fill="#4100eb" fill-rule="evenodd" fill-opacity="1"/>
<polyline clip-path="url(#clip6002)" style="stroke:#000000; stroke-width:4; stroke-opacity:0; fill:none" points="
  1091.84,1366.22 1091.84,1386.61 1110.32,1386.61 1110.32,1366.22 1091.84,1366.22 
  "/>
<path clip-path="url(#clip6002)" d="
M1110.32 1358.67 L1110.32 1386.61 L1128.79 1386.61 L1128.79 1358.67 L1110.32 1358.67 L1110.32 1358.67  Z
  " fill="#4100eb" fill-rule="evenodd" fill-opacity="1"/>
<polyline clip-path="url(#clip6002)" style="stroke:#000000; stroke-width:4; stroke-opacity:0; fill:none" points="
  1110.32,1358.67 1110.32,1386.61 1128.79,1386.61 1128.79,1358.67 1110.32,1358.67 
  "/>
<path clip-path="url(#clip6002)" d="
M1128.79 1365.46 L1128.79 1386.61 L1147.27 1386.61 L1147.27 1365.46 L1128.79 1365.46 L1128.79 1365.46  Z
  " fill="#4100eb" fill-rule="evenodd" fill-opacity="1"/>
<polyline clip-path="url(#clip6002)" style="stroke:#000000; stroke-width:4; stroke-opacity:0; fill:none" points="
  1128.79,1365.46 1128.79,1386.61 1147.27,1386.61 1147.27,1365.46 1128.79,1365.46 
  "/>
<path clip-path="url(#clip6002)" d="
M1147.27 1362.44 L1147.27 1386.61 L1165.75 1386.61 L1165.75 1362.44 L1147.27 1362.44 L1147.27 1362.44  Z
  " fill="#4100eb" fill-rule="evenodd" fill-opacity="1"/>
<polyline clip-path="url(#clip6002)" style="stroke:#000000; stroke-width:4; stroke-opacity:0; fill:none" points="
  1147.27,1362.44 1147.27,1386.61 1165.75,1386.61 1165.75,1362.44 1147.27,1362.44 
  "/>
<path clip-path="url(#clip6002)" d="
M1165.75 1363.2 L1165.75 1386.61 L1184.22 1386.61 L1184.22 1363.2 L1165.75 1363.2 L1165.75 1363.2  Z
  " fill="#4100eb" fill-rule="evenodd" fill-opacity="1"/>
<polyline clip-path="url(#clip6002)" style="stroke:#000000; stroke-width:4; stroke-opacity:0; fill:none" points="
  1165.75,1363.2 1165.75,1386.61 1184.22,1386.61 1184.22,1363.2 1165.75,1363.2 
  "/>
<path clip-path="url(#clip6002)" d="
M1184.22 1363.2 L1184.22 1386.61 L1202.7 1386.61 L1202.7 1363.2 L1184.22 1363.2 L1184.22 1363.2  Z
  " fill="#4100eb" fill-rule="evenodd" fill-opacity="1"/>
<polyline clip-path="url(#clip6002)" style="stroke:#000000; stroke-width:4; stroke-opacity:0; fill:none" points="
  1184.22,1363.2 1184.22,1386.61 1202.7,1386.61 1202.7,1363.2 1184.22,1363.2 
  "/>
<path clip-path="url(#clip6002)" d="
M1202.7 1368.48 L1202.7 1386.61 L1221.18 1386.61 L1221.18 1368.48 L1202.7 1368.48 L1202.7 1368.48  Z
  " fill="#4100eb" fill-rule="evenodd" fill-opacity="1"/>
<polyline clip-path="url(#clip6002)" style="stroke:#000000; stroke-width:4; stroke-opacity:0; fill:none" points="
  1202.7,1368.48 1202.7,1386.61 1221.18,1386.61 1221.18,1368.48 1202.7,1368.48 
  "/>
<path clip-path="url(#clip6002)" d="
M1221.18 1367.73 L1221.18 1386.61 L1239.66 1386.61 L1239.66 1367.73 L1221.18 1367.73 L1221.18 1367.73  Z
  " fill="#4100eb" fill-rule="evenodd" fill-opacity="1"/>
<polyline clip-path="url(#clip6002)" style="stroke:#000000; stroke-width:4; stroke-opacity:0; fill:none" points="
  1221.18,1367.73 1221.18,1386.61 1239.66,1386.61 1239.66,1367.73 1221.18,1367.73 
  "/>
<path clip-path="url(#clip6002)" d="
M1239.66 1365.46 L1239.66 1386.61 L1258.13 1386.61 L1258.13 1365.46 L1239.66 1365.46 L1239.66 1365.46  Z
  " fill="#4100eb" fill-rule="evenodd" fill-opacity="1"/>
<polyline clip-path="url(#clip6002)" style="stroke:#000000; stroke-width:4; stroke-opacity:0; fill:none" points="
  1239.66,1365.46 1239.66,1386.61 1258.13,1386.61 1258.13,1365.46 1239.66,1365.46 
  "/>
<path clip-path="url(#clip6002)" d="
M1258.13 1375.28 L1258.13 1386.61 L1276.61 1386.61 L1276.61 1375.28 L1258.13 1375.28 L1258.13 1375.28  Z
  " fill="#4100eb" fill-rule="evenodd" fill-opacity="1"/>
<polyline clip-path="url(#clip6002)" style="stroke:#000000; stroke-width:4; stroke-opacity:0; fill:none" points="
  1258.13,1375.28 1258.13,1386.61 1276.61,1386.61 1276.61,1375.28 1258.13,1375.28 
  "/>
<path clip-path="url(#clip6002)" d="
M1276.61 1366.22 L1276.61 1386.61 L1295.09 1386.61 L1295.09 1366.22 L1276.61 1366.22 L1276.61 1366.22  Z
  " fill="#4100eb" fill-rule="evenodd" fill-opacity="1"/>
<polyline clip-path="url(#clip6002)" style="stroke:#000000; stroke-width:4; stroke-opacity:0; fill:none" points="
  1276.61,1366.22 1276.61,1386.61 1295.09,1386.61 1295.09,1366.22 1276.61,1366.22 
  "/>
<path clip-path="url(#clip6002)" d="
M1295.09 1374.53 L1295.09 1386.61 L1313.57 1386.61 L1313.57 1374.53 L1295.09 1374.53 L1295.09 1374.53  Z
  " fill="#4100eb" fill-rule="evenodd" fill-opacity="1"/>
<polyline clip-path="url(#clip6002)" style="stroke:#000000; stroke-width:4; stroke-opacity:0; fill:none" points="
  1295.09,1374.53 1295.09,1386.61 1313.57,1386.61 1313.57,1374.53 1295.09,1374.53 
  "/>
<path clip-path="url(#clip6002)" d="
M1313.57 1374.53 L1313.57 1386.61 L1332.04 1386.61 L1332.04 1374.53 L1313.57 1374.53 L1313.57 1374.53  Z
  " fill="#4100eb" fill-rule="evenodd" fill-opacity="1"/>
<polyline clip-path="url(#clip6002)" style="stroke:#000000; stroke-width:4; stroke-opacity:0; fill:none" points="
  1313.57,1374.53 1313.57,1386.61 1332.04,1386.61 1332.04,1374.53 1313.57,1374.53 
  "/>
<path clip-path="url(#clip6002)" d="
M1332.04 1373.02 L1332.04 1386.61 L1350.52 1386.61 L1350.52 1373.02 L1332.04 1373.02 L1332.04 1373.02  Z
  " fill="#4100eb" fill-rule="evenodd" fill-opacity="1"/>
<polyline clip-path="url(#clip6002)" style="stroke:#000000; stroke-width:4; stroke-opacity:0; fill:none" points="
  1332.04,1373.02 1332.04,1386.61 1350.52,1386.61 1350.52,1373.02 1332.04,1373.02 
  "/>
<path clip-path="url(#clip6002)" d="
M1350.52 1372.26 L1350.52 1386.61 L1369 1386.61 L1369 1372.26 L1350.52 1372.26 L1350.52 1372.26  Z
  " fill="#4100eb" fill-rule="evenodd" fill-opacity="1"/>
<polyline clip-path="url(#clip6002)" style="stroke:#000000; stroke-width:4; stroke-opacity:0; fill:none" points="
  1350.52,1372.26 1350.52,1386.61 1369,1386.61 1369,1372.26 1350.52,1372.26 
  "/>
<path clip-path="url(#clip6002)" d="
M1369 1376.79 L1369 1386.61 L1387.47 1386.61 L1387.47 1376.79 L1369 1376.79 L1369 1376.79  Z
  " fill="#4100eb" fill-rule="evenodd" fill-opacity="1"/>
<polyline clip-path="url(#clip6002)" style="stroke:#000000; stroke-width:4; stroke-opacity:0; fill:none" points="
  1369,1376.79 1369,1386.61 1387.47,1386.61 1387.47,1376.79 1369,1376.79 
  "/>
<path clip-path="url(#clip6002)" d="
M1387.47 1372.26 L1387.47 1386.61 L1405.95 1386.61 L1405.95 1372.26 L1387.47 1372.26 L1387.47 1372.26  Z
  " fill="#4100eb" fill-rule="evenodd" fill-opacity="1"/>
<polyline clip-path="url(#clip6002)" style="stroke:#000000; stroke-width:4; stroke-opacity:0; fill:none" points="
  1387.47,1372.26 1387.47,1386.61 1405.95,1386.61 1405.95,1372.26 1387.47,1372.26 
  "/>
<path clip-path="url(#clip6002)" d="
M1405.95 1374.53 L1405.95 1386.61 L1424.43 1386.61 L1424.43 1374.53 L1405.95 1374.53 L1405.95 1374.53  Z
  " fill="#4100eb" fill-rule="evenodd" fill-opacity="1"/>
<polyline clip-path="url(#clip6002)" style="stroke:#000000; stroke-width:4; stroke-opacity:0; fill:none" points="
  1405.95,1374.53 1405.95,1386.61 1424.43,1386.61 1424.43,1374.53 1405.95,1374.53 
  "/>
<path clip-path="url(#clip6002)" d="
M1424.43 1376.79 L1424.43 1386.61 L1442.91 1386.61 L1442.91 1376.79 L1424.43 1376.79 L1424.43 1376.79  Z
  " fill="#4100eb" fill-rule="evenodd" fill-opacity="1"/>
<polyline clip-path="url(#clip6002)" style="stroke:#000000; stroke-width:4; stroke-opacity:0; fill:none" points="
  1424.43,1376.79 1424.43,1386.61 1442.91,1386.61 1442.91,1376.79 1424.43,1376.79 
  "/>
<path clip-path="url(#clip6002)" d="
M1442.91 1375.28 L1442.91 1386.61 L1461.38 1386.61 L1461.38 1375.28 L1442.91 1375.28 L1442.91 1375.28  Z
  " fill="#4100eb" fill-rule="evenodd" fill-opacity="1"/>
<polyline clip-path="url(#clip6002)" style="stroke:#000000; stroke-width:4; stroke-opacity:0; fill:none" points="
  1442.91,1375.28 1442.91,1386.61 1461.38,1386.61 1461.38,1375.28 1442.91,1375.28 
  "/>
<path clip-path="url(#clip6002)" d="
M1461.38 1379.81 L1461.38 1386.61 L1479.86 1386.61 L1479.86 1379.81 L1461.38 1379.81 L1461.38 1379.81  Z
  " fill="#4100eb" fill-rule="evenodd" fill-opacity="1"/>
<polyline clip-path="url(#clip6002)" style="stroke:#000000; stroke-width:4; stroke-opacity:0; fill:none" points="
  1461.38,1379.81 1461.38,1386.61 1479.86,1386.61 1479.86,1379.81 1461.38,1379.81 
  "/>
<path clip-path="url(#clip6002)" d="
M1479.86 1375.28 L1479.86 1386.61 L1498.34 1386.61 L1498.34 1375.28 L1479.86 1375.28 L1479.86 1375.28  Z
  " fill="#4100eb" fill-rule="evenodd" fill-opacity="1"/>
<polyline clip-path="url(#clip6002)" style="stroke:#000000; stroke-width:4; stroke-opacity:0; fill:none" points="
  1479.86,1375.28 1479.86,1386.61 1498.34,1386.61 1498.34,1375.28 1479.86,1375.28 
  "/>
<path clip-path="url(#clip6002)" d="
M1498.34 1378.3 L1498.34 1386.61 L1516.81 1386.61 L1516.81 1378.3 L1498.34 1378.3 L1498.34 1378.3  Z
  " fill="#4100eb" fill-rule="evenodd" fill-opacity="1"/>
<polyline clip-path="url(#clip6002)" style="stroke:#000000; stroke-width:4; stroke-opacity:0; fill:none" points="
  1498.34,1378.3 1498.34,1386.61 1516.81,1386.61 1516.81,1378.3 1498.34,1378.3 
  "/>
<path clip-path="url(#clip6002)" d="
M1516.81 1378.3 L1516.81 1386.61 L1535.29 1386.61 L1535.29 1378.3 L1516.81 1378.3 L1516.81 1378.3  Z
  " fill="#4100eb" fill-rule="evenodd" fill-opacity="1"/>
<polyline clip-path="url(#clip6002)" style="stroke:#000000; stroke-width:4; stroke-opacity:0; fill:none" points="
  1516.81,1378.3 1516.81,1386.61 1535.29,1386.61 1535.29,1378.3 1516.81,1378.3 
  "/>
<path clip-path="url(#clip6002)" d="
M1535.29 1379.06 L1535.29 1386.61 L1553.77 1386.61 L1553.77 1379.06 L1535.29 1379.06 L1535.29 1379.06  Z
  " fill="#4100eb" fill-rule="evenodd" fill-opacity="1"/>
<polyline clip-path="url(#clip6002)" style="stroke:#000000; stroke-width:4; stroke-opacity:0; fill:none" points="
  1535.29,1379.06 1535.29,1386.61 1553.77,1386.61 1553.77,1379.06 1535.29,1379.06 
  "/>
<path clip-path="url(#clip6002)" d="
M1553.77 1379.81 L1553.77 1386.61 L1572.25 1386.61 L1572.25 1379.81 L1553.77 1379.81 L1553.77 1379.81  Z
  " fill="#4100eb" fill-rule="evenodd" fill-opacity="1"/>
<polyline clip-path="url(#clip6002)" style="stroke:#000000; stroke-width:4; stroke-opacity:0; fill:none" points="
  1553.77,1379.81 1553.77,1386.61 1572.25,1386.61 1572.25,1379.81 1553.77,1379.81 
  "/>
<path clip-path="url(#clip6002)" d="
M1572.25 1381.32 L1572.25 1386.61 L1590.72 1386.61 L1590.72 1381.32 L1572.25 1381.32 L1572.25 1381.32  Z
  " fill="#4100eb" fill-rule="evenodd" fill-opacity="1"/>
<polyline clip-path="url(#clip6002)" style="stroke:#000000; stroke-width:4; stroke-opacity:0; fill:none" points="
  1572.25,1381.32 1572.25,1386.61 1590.72,1386.61 1590.72,1381.32 1572.25,1381.32 
  "/>
<path clip-path="url(#clip6002)" d="
M1590.72 1379.06 L1590.72 1386.61 L1609.2 1386.61 L1609.2 1379.06 L1590.72 1379.06 L1590.72 1379.06  Z
  " fill="#4100eb" fill-rule="evenodd" fill-opacity="1"/>
<polyline clip-path="url(#clip6002)" style="stroke:#000000; stroke-width:4; stroke-opacity:0; fill:none" points="
  1590.72,1379.06 1590.72,1386.61 1609.2,1386.61 1609.2,1379.06 1590.72,1379.06 
  "/>
<path clip-path="url(#clip6002)" d="
M1609.2 1381.32 L1609.2 1386.61 L1627.68 1386.61 L1627.68 1381.32 L1609.2 1381.32 L1609.2 1381.32  Z
  " fill="#4100eb" fill-rule="evenodd" fill-opacity="1"/>
<polyline clip-path="url(#clip6002)" style="stroke:#000000; stroke-width:4; stroke-opacity:0; fill:none" points="
  1609.2,1381.32 1609.2,1386.61 1627.68,1386.61 1627.68,1381.32 1609.2,1381.32 
  "/>
<path clip-path="url(#clip6002)" d="
M1627.68 1377.55 L1627.68 1386.61 L1646.15 1386.61 L1646.15 1377.55 L1627.68 1377.55 L1627.68 1377.55  Z
  " fill="#4100eb" fill-rule="evenodd" fill-opacity="1"/>
<polyline clip-path="url(#clip6002)" style="stroke:#000000; stroke-width:4; stroke-opacity:0; fill:none" points="
  1627.68,1377.55 1627.68,1386.61 1646.15,1386.61 1646.15,1377.55 1627.68,1377.55 
  "/>
<path clip-path="url(#clip6002)" d="
M1646.15 1382.08 L1646.15 1386.61 L1664.63 1386.61 L1664.63 1382.08 L1646.15 1382.08 L1646.15 1382.08  Z
  " fill="#4100eb" fill-rule="evenodd" fill-opacity="1"/>
<polyline clip-path="url(#clip6002)" style="stroke:#000000; stroke-width:4; stroke-opacity:0; fill:none" points="
  1646.15,1382.08 1646.15,1386.61 1664.63,1386.61 1664.63,1382.08 1646.15,1382.08 
  "/>
<path clip-path="url(#clip6002)" d="
M1664.63 1377.55 L1664.63 1386.61 L1683.11 1386.61 L1683.11 1377.55 L1664.63 1377.55 L1664.63 1377.55  Z
  " fill="#4100eb" fill-rule="evenodd" fill-opacity="1"/>
<polyline clip-path="url(#clip6002)" style="stroke:#000000; stroke-width:4; stroke-opacity:0; fill:none" points="
  1664.63,1377.55 1664.63,1386.61 1683.11,1386.61 1683.11,1377.55 1664.63,1377.55 
  "/>
<path clip-path="url(#clip6002)" d="
M1683.11 1382.08 L1683.11 1386.61 L1701.59 1386.61 L1701.59 1382.08 L1683.11 1382.08 L1683.11 1382.08  Z
  " fill="#4100eb" fill-rule="evenodd" fill-opacity="1"/>
<polyline clip-path="url(#clip6002)" style="stroke:#000000; stroke-width:4; stroke-opacity:0; fill:none" points="
  1683.11,1382.08 1683.11,1386.61 1701.59,1386.61 1701.59,1382.08 1683.11,1382.08 
  "/>
<path clip-path="url(#clip6002)" d="
M1701.59 1380.57 L1701.59 1386.61 L1720.06 1386.61 L1720.06 1380.57 L1701.59 1380.57 L1701.59 1380.57  Z
  " fill="#4100eb" fill-rule="evenodd" fill-opacity="1"/>
<polyline clip-path="url(#clip6002)" style="stroke:#000000; stroke-width:4; stroke-opacity:0; fill:none" points="
  1701.59,1380.57 1701.59,1386.61 1720.06,1386.61 1720.06,1380.57 1701.59,1380.57 
  "/>
<path clip-path="url(#clip6002)" d="
M1720.06 1382.08 L1720.06 1386.61 L1738.54 1386.61 L1738.54 1382.08 L1720.06 1382.08 L1720.06 1382.08  Z
  " fill="#4100eb" fill-rule="evenodd" fill-opacity="1"/>
<polyline clip-path="url(#clip6002)" style="stroke:#000000; stroke-width:4; stroke-opacity:0; fill:none" points="
  1720.06,1382.08 1720.06,1386.61 1738.54,1386.61 1738.54,1382.08 1720.06,1382.08 
  "/>
<path clip-path="url(#clip6002)" d="
M1738.54 1384.34 L1738.54 1386.61 L1757.02 1386.61 L1757.02 1384.34 L1738.54 1384.34 L1738.54 1384.34  Z
  " fill="#4100eb" fill-rule="evenodd" fill-opacity="1"/>
<polyline clip-path="url(#clip6002)" style="stroke:#000000; stroke-width:4; stroke-opacity:0; fill:none" points="
  1738.54,1384.34 1738.54,1386.61 1757.02,1386.61 1757.02,1384.34 1738.54,1384.34 
  "/>
<path clip-path="url(#clip6002)" d="
M1757.02 1382.83 L1757.02 1386.61 L1775.5 1386.61 L1775.5 1382.83 L1757.02 1382.83 L1757.02 1382.83  Z
  " fill="#4100eb" fill-rule="evenodd" fill-opacity="1"/>
<polyline clip-path="url(#clip6002)" style="stroke:#000000; stroke-width:4; stroke-opacity:0; fill:none" points="
  1757.02,1382.83 1757.02,1386.61 1775.5,1386.61 1775.5,1382.83 1757.02,1382.83 
  "/>
<path clip-path="url(#clip6002)" d="
M1775.5 1382.08 L1775.5 1386.61 L1793.97 1386.61 L1793.97 1382.08 L1775.5 1382.08 L1775.5 1382.08  Z
  " fill="#4100eb" fill-rule="evenodd" fill-opacity="1"/>
<polyline clip-path="url(#clip6002)" style="stroke:#000000; stroke-width:4; stroke-opacity:0; fill:none" points="
  1775.5,1382.08 1775.5,1386.61 1793.97,1386.61 1793.97,1382.08 1775.5,1382.08 
  "/>
<path clip-path="url(#clip6002)" d="
M1793.97 1380.57 L1793.97 1386.61 L1812.45 1386.61 L1812.45 1380.57 L1793.97 1380.57 L1793.97 1380.57  Z
  " fill="#4100eb" fill-rule="evenodd" fill-opacity="1"/>
<polyline clip-path="url(#clip6002)" style="stroke:#000000; stroke-width:4; stroke-opacity:0; fill:none" points="
  1793.97,1380.57 1793.97,1386.61 1812.45,1386.61 1812.45,1380.57 1793.97,1380.57 
  "/>
<path clip-path="url(#clip6002)" d="
M1812.45 1380.57 L1812.45 1386.61 L1830.93 1386.61 L1830.93 1380.57 L1812.45 1380.57 L1812.45 1380.57  Z
  " fill="#4100eb" fill-rule="evenodd" fill-opacity="1"/>
<polyline clip-path="url(#clip6002)" style="stroke:#000000; stroke-width:4; stroke-opacity:0; fill:none" points="
  1812.45,1380.57 1812.45,1386.61 1830.93,1386.61 1830.93,1380.57 1812.45,1380.57 
  "/>
<path clip-path="url(#clip6002)" d="
M1830.93 1382.83 L1830.93 1386.61 L1849.4 1386.61 L1849.4 1382.83 L1830.93 1382.83 L1830.93 1382.83  Z
  " fill="#4100eb" fill-rule="evenodd" fill-opacity="1"/>
<polyline clip-path="url(#clip6002)" style="stroke:#000000; stroke-width:4; stroke-opacity:0; fill:none" points="
  1830.93,1382.83 1830.93,1386.61 1849.4,1386.61 1849.4,1382.83 1830.93,1382.83 
  "/>
<path clip-path="url(#clip6002)" d="
M1849.4 1384.34 L1849.4 1386.61 L1867.88 1386.61 L1867.88 1384.34 L1849.4 1384.34 L1849.4 1384.34  Z
  " fill="#4100eb" fill-rule="evenodd" fill-opacity="1"/>
<polyline clip-path="url(#clip6002)" style="stroke:#000000; stroke-width:4; stroke-opacity:0; fill:none" points="
  1849.4,1384.34 1849.4,1386.61 1867.88,1386.61 1867.88,1384.34 1849.4,1384.34 
  "/>
<path clip-path="url(#clip6002)" d="
M1867.88 1382.08 L1867.88 1386.61 L1886.36 1386.61 L1886.36 1382.08 L1867.88 1382.08 L1867.88 1382.08  Z
  " fill="#4100eb" fill-rule="evenodd" fill-opacity="1"/>
<polyline clip-path="url(#clip6002)" style="stroke:#000000; stroke-width:4; stroke-opacity:0; fill:none" points="
  1867.88,1382.08 1867.88,1386.61 1886.36,1386.61 1886.36,1382.08 1867.88,1382.08 
  "/>
<path clip-path="url(#clip6002)" d="
M1886.36 1383.59 L1886.36 1386.61 L1904.84 1386.61 L1904.84 1383.59 L1886.36 1383.59 L1886.36 1383.59  Z
  " fill="#4100eb" fill-rule="evenodd" fill-opacity="1"/>
<polyline clip-path="url(#clip6002)" style="stroke:#000000; stroke-width:4; stroke-opacity:0; fill:none" points="
  1886.36,1383.59 1886.36,1386.61 1904.84,1386.61 1904.84,1383.59 1886.36,1383.59 
  "/>
<path clip-path="url(#clip6002)" d="
M1904.84 1385.85 L1904.84 1386.61 L1923.31 1386.61 L1923.31 1385.85 L1904.84 1385.85 L1904.84 1385.85  Z
  " fill="#4100eb" fill-rule="evenodd" fill-opacity="1"/>
<polyline clip-path="url(#clip6002)" style="stroke:#000000; stroke-width:4; stroke-opacity:0; fill:none" points="
  1904.84,1385.85 1904.84,1386.61 1923.31,1386.61 1923.31,1385.85 1904.84,1385.85 
  "/>
<path clip-path="url(#clip6002)" d="
M1923.31 1382.08 L1923.31 1386.61 L1941.79 1386.61 L1941.79 1382.08 L1923.31 1382.08 L1923.31 1382.08  Z
  " fill="#4100eb" fill-rule="evenodd" fill-opacity="1"/>
<polyline clip-path="url(#clip6002)" style="stroke:#000000; stroke-width:4; stroke-opacity:0; fill:none" points="
  1923.31,1382.08 1923.31,1386.61 1941.79,1386.61 1941.79,1382.08 1923.31,1382.08 
  "/>
<path clip-path="url(#clip6002)" d="
M1941.79 1384.34 L1941.79 1386.61 L1960.27 1386.61 L1960.27 1384.34 L1941.79 1384.34 L1941.79 1384.34  Z
  " fill="#4100eb" fill-rule="evenodd" fill-opacity="1"/>
<polyline clip-path="url(#clip6002)" style="stroke:#000000; stroke-width:4; stroke-opacity:0; fill:none" points="
  1941.79,1384.34 1941.79,1386.61 1960.27,1386.61 1960.27,1384.34 1941.79,1384.34 
  "/>
<path clip-path="url(#clip6002)" d="
M1960.27 1386.61 L1960.27 1386.61 L1978.74 1386.61 L1978.74 1386.61 L1960.27 1386.61 L1960.27 1386.61  Z
  " fill="#4100eb" fill-rule="evenodd" fill-opacity="1"/>
<polyline clip-path="url(#clip6002)" style="stroke:#000000; stroke-width:4; stroke-opacity:0; fill:none" points="
  1960.27,1386.61 1960.27,1386.61 1978.74,1386.61 1960.27,1386.61 
  "/>
<path clip-path="url(#clip6002)" d="
M1978.74 1382.83 L1978.74 1386.61 L1997.22 1386.61 L1997.22 1382.83 L1978.74 1382.83 L1978.74 1382.83  Z
  " fill="#4100eb" fill-rule="evenodd" fill-opacity="1"/>
<polyline clip-path="url(#clip6002)" style="stroke:#000000; stroke-width:4; stroke-opacity:0; fill:none" points="
  1978.74,1382.83 1978.74,1386.61 1997.22,1386.61 1997.22,1382.83 1978.74,1382.83 
  "/>
<path clip-path="url(#clip6002)" d="
M1997.22 1385.85 L1997.22 1386.61 L2015.7 1386.61 L2015.7 1385.85 L1997.22 1385.85 L1997.22 1385.85  Z
  " fill="#4100eb" fill-rule="evenodd" fill-opacity="1"/>
<polyline clip-path="url(#clip6002)" style="stroke:#000000; stroke-width:4; stroke-opacity:0; fill:none" points="
  1997.22,1385.85 1997.22,1386.61 2015.7,1386.61 2015.7,1385.85 1997.22,1385.85 
  "/>
<path clip-path="url(#clip6002)" d="
M2015.7 1382.83 L2015.7 1386.61 L2034.18 1386.61 L2034.18 1382.83 L2015.7 1382.83 L2015.7 1382.83  Z
  " fill="#4100eb" fill-rule="evenodd" fill-opacity="1"/>
<polyline clip-path="url(#clip6002)" style="stroke:#000000; stroke-width:4; stroke-opacity:0; fill:none" points="
  2015.7,1382.83 2015.7,1386.61 2034.18,1386.61 2034.18,1382.83 2015.7,1382.83 
  "/>
<path clip-path="url(#clip6002)" d="
M2034.18 1386.61 L2034.18 1386.61 L2052.65 1386.61 L2052.65 1386.61 L2034.18 1386.61 L2034.18 1386.61  Z
  " fill="#4100eb" fill-rule="evenodd" fill-opacity="1"/>
<polyline clip-path="url(#clip6002)" style="stroke:#000000; stroke-width:4; stroke-opacity:0; fill:none" points="
  2034.18,1386.61 2034.18,1386.61 2052.65,1386.61 2034.18,1386.61 
  "/>
<path clip-path="url(#clip6002)" d="
M2052.65 1385.1 L2052.65 1386.61 L2071.13 1386.61 L2071.13 1385.1 L2052.65 1385.1 L2052.65 1385.1  Z
  " fill="#4100eb" fill-rule="evenodd" fill-opacity="1"/>
<polyline clip-path="url(#clip6002)" style="stroke:#000000; stroke-width:4; stroke-opacity:0; fill:none" points="
  2052.65,1385.1 2052.65,1386.61 2071.13,1386.61 2071.13,1385.1 2052.65,1385.1 
  "/>
<path clip-path="url(#clip6002)" d="
M2071.13 1385.1 L2071.13 1386.61 L2089.61 1386.61 L2089.61 1385.1 L2071.13 1385.1 L2071.13 1385.1  Z
  " fill="#4100eb" fill-rule="evenodd" fill-opacity="1"/>
<polyline clip-path="url(#clip6002)" style="stroke:#000000; stroke-width:4; stroke-opacity:0; fill:none" points="
  2071.13,1385.1 2071.13,1386.61 2089.61,1386.61 2089.61,1385.1 2071.13,1385.1 
  "/>
<path clip-path="url(#clip6002)" d="
M2089.61 1384.34 L2089.61 1386.61 L2108.08 1386.61 L2108.08 1384.34 L2089.61 1384.34 L2089.61 1384.34  Z
  " fill="#4100eb" fill-rule="evenodd" fill-opacity="1"/>
<polyline clip-path="url(#clip6002)" style="stroke:#000000; stroke-width:4; stroke-opacity:0; fill:none" points="
  2089.61,1384.34 2089.61,1386.61 2108.08,1386.61 2108.08,1384.34 2089.61,1384.34 
  "/>
<path clip-path="url(#clip6002)" d="
M2108.08 1385.1 L2108.08 1386.61 L2126.56 1386.61 L2126.56 1385.1 L2108.08 1385.1 L2108.08 1385.1  Z
  " fill="#4100eb" fill-rule="evenodd" fill-opacity="1"/>
<polyline clip-path="url(#clip6002)" style="stroke:#000000; stroke-width:4; stroke-opacity:0; fill:none" points="
  2108.08,1385.1 2108.08,1386.61 2126.56,1386.61 2126.56,1385.1 2108.08,1385.1 
  "/>
<path clip-path="url(#clip6002)" d="
M2126.56 1383.59 L2126.56 1386.61 L2145.04 1386.61 L2145.04 1383.59 L2126.56 1383.59 L2126.56 1383.59  Z
  " fill="#4100eb" fill-rule="evenodd" fill-opacity="1"/>
<polyline clip-path="url(#clip6002)" style="stroke:#000000; stroke-width:4; stroke-opacity:0; fill:none" points="
  2126.56,1383.59 2126.56,1386.61 2145.04,1386.61 2145.04,1383.59 2126.56,1383.59 
  "/>
<path clip-path="url(#clip6002)" d="
M2145.04 1384.34 L2145.04 1386.61 L2163.52 1386.61 L2163.52 1384.34 L2145.04 1384.34 L2145.04 1384.34  Z
  " fill="#4100eb" fill-rule="evenodd" fill-opacity="1"/>
<polyline clip-path="url(#clip6002)" style="stroke:#000000; stroke-width:4; stroke-opacity:0; fill:none" points="
  2145.04,1384.34 2145.04,1386.61 2163.52,1386.61 2163.52,1384.34 2145.04,1384.34 
  "/>
<path clip-path="url(#clip6002)" d="
M2163.52 1384.34 L2163.52 1386.61 L2181.99 1386.61 L2181.99 1384.34 L2163.52 1384.34 L2163.52 1384.34  Z
  " fill="#4100eb" fill-rule="evenodd" fill-opacity="1"/>
<polyline clip-path="url(#clip6002)" style="stroke:#000000; stroke-width:4; stroke-opacity:0; fill:none" points="
  2163.52,1384.34 2163.52,1386.61 2181.99,1386.61 2181.99,1384.34 2163.52,1384.34 
  "/>
<path clip-path="url(#clip6002)" d="
M2181.99 1385.85 L2181.99 1386.61 L2200.47 1386.61 L2200.47 1385.85 L2181.99 1385.85 L2181.99 1385.85  Z
  " fill="#4100eb" fill-rule="evenodd" fill-opacity="1"/>
<polyline clip-path="url(#clip6002)" style="stroke:#000000; stroke-width:4; stroke-opacity:0; fill:none" points="
  2181.99,1385.85 2181.99,1386.61 2200.47,1386.61 2200.47,1385.85 2181.99,1385.85 
  "/>
<path clip-path="url(#clip6002)" d="
M2200.47 1384.34 L2200.47 1386.61 L2218.95 1386.61 L2218.95 1384.34 L2200.47 1384.34 L2200.47 1384.34  Z
  " fill="#4100eb" fill-rule="evenodd" fill-opacity="1"/>
<polyline clip-path="url(#clip6002)" style="stroke:#000000; stroke-width:4; stroke-opacity:0; fill:none" points="
  2200.47,1384.34 2200.47,1386.61 2218.95,1386.61 2218.95,1384.34 2200.47,1384.34 
  "/>
<path clip-path="url(#clip6002)" d="
M2218.95 1342.05 L2218.95 1386.61 L2237.42 1386.61 L2237.42 1342.05 L2218.95 1342.05 L2218.95 1342.05  Z
  " fill="#4100eb" fill-rule="evenodd" fill-opacity="1"/>
<polyline clip-path="url(#clip6002)" style="stroke:#000000; stroke-width:4; stroke-opacity:0; fill:none" points="
  2218.95,1342.05 2218.95,1386.61 2237.42,1386.61 2237.42,1342.05 2218.95,1342.05 
  "/>
</svg>
